<?xml version="1.0" standalone="no"?>
<!DOCTYPE svg PUBLIC "-//W3C//DTD SVG 20010904//EN"
 "http://www.w3.org/TR/2001/REC-SVG-20010904/DTD/svg10.dtd">
<svg version="1.0" xmlns="http://www.w3.org/2000/svg"
 width="1181.000000pt" height="1181.000000pt" viewBox="0 0 1181.000000 1181.000000"
 preserveAspectRatio="xMidYMid meet">
<metadata>
Created by potrace 1.11, written by Peter Selinger 2001-2013
</metadata>
<g transform="translate(0.000000,1181.000000) scale(0.100000,-0.100000)"
fill="#000000" stroke="none">
<path d="M5015 9224 c-388 -62 -703 -248 -846 -498 -36 -63 -74 -154 -83 -198
-2 -13 -12 -57 -21 -98 -17 -75 -31 -373 -19 -416 5 -20 11 -19 202 38 188 56
368 105 422 114 14 3 39 9 55 14 17 5 75 17 130 26 163 30 550 24 834 -11 30
-4 62 -8 71 -10 8 -1 35 -6 60 -9 161 -22 245 -68 370 -205 47 -51 87 -97 88
-102 2 -5 39 20 82 56 l79 66 43 -68 c24 -37 77 -121 118 -186 110 -175 110
-175 205 -191 44 -8 109 -17 145 -21 36 -3 72 -8 82 -11 32 -9 28 14 -6 35
-50 31 -114 105 -137 159 -13 28 -22 77 -25 120 l-3 73 60 -54 c65 -59 162
-112 225 -124 69 -12 235 -6 304 12 8 2 37 6 63 10 40 5 178 32 251 50 40 9
25 14 -46 14 -182 0 -348 55 -476 158 -23 19 -100 93 -170 164 -119 120 -131
129 -166 129 -49 0 -175 -32 -273 -70 -43 -17 -80 -30 -84 -30 -4 0 -17 26
-29 58 -13 31 -34 72 -47 90 -29 39 -35 38 -167 -3 -47 -16 -88 -26 -90 -24
-2 2 -6 27 -9 54 -25 231 -42 306 -88 396 -41 83 -95 144 -189 216 -198 152
-374 241 -550 278 -80 17 -259 16 -365 -1z"/>
<path d="M5728 8075 c-2 -2 -25 -6 -51 -9 -63 -9 -204 -60 -255 -93 -43 -28
-65 -63 -56 -88 6 -16 121 -88 195 -122 25 -12 68 -26 96 -31 141 -25 251 84
244 242 -3 73 -31 97 -117 101 -30 1 -55 1 -56 0z"/>
<path d="M4426 8033 c-98 -33 -136 -129 -88 -221 34 -66 83 -107 137 -115 77
-12 278 68 354 141 78 74 43 115 -130 155 -246 57 -231 55 -273 40z"/>
<path d="M5065 7769 c-96 -37 -401 -138 -495 -163 -52 -14 -189 -46 -305 -71
-376 -83 -764 -201 -715 -218 8 -2 51 -16 95 -30 91 -28 306 -121 348 -150 15
-10 25 -22 23 -26 -3 -4 -8 -21 -10 -37 -24 -131 -65 -221 -201 -442 -52 -85
-89 -156 -90 -175 -4 -42 63 -171 122 -237 29 -32 127 -104 276 -203 274 -182
318 -210 322 -205 2 2 -12 38 -31 81 -28 63 -34 90 -34 144 l0 67 28 -26 c83
-78 202 -142 497 -268 132 -56 254 -108 270 -115 17 -8 118 -51 225 -96 l195
-81 45 16 c102 36 208 55 345 62 270 13 275 13 413 50 52 13 96 24 99 24 3 0
0 7 -7 15 -7 8 -17 15 -22 15 -38 0 -263 198 -326 288 l-23 32 33 0 c73 1 158
13 263 36 223 50 251 56 285 55 55 0 700 -246 728 -277 28 -32 29 -79 3 -211
-11 -54 -23 -136 -27 -182 l-7 -83 24 7 c13 4 33 13 44 19 59 36 166 66 285
80 67 8 132 17 160 22 14 2 61 7 105 10 70 5 87 3 128 -16 26 -12 58 -36 72
-53 13 -17 26 -29 28 -27 2 3 37 50 77 105 41 55 106 143 146 196 l73 96 -107
-53 c-58 -29 -108 -52 -110 -50 -1 2 -23 -2 -48 -10 -42 -13 -90 -18 -254 -29
-41 -3 -91 -8 -110 -11 -46 -7 -244 -59 -299 -79 -24 -8 -45 -15 -46 -15 -3 0
2 36 14 110 14 85 5 233 -18 303 -38 118 -110 213 -215 284 -55 37 -90 65
-156 127 -58 53 -150 167 -150 185 0 5 33 -12 73 -40 39 -27 79 -54 87 -59 8
-6 61 -42 118 -80 56 -39 104 -70 106 -70 3 0 21 15 41 34 52 49 115 75 245
100 14 3 35 7 48 10 12 4 32 8 45 12 56 13 71 14 101 4 17 -5 45 -22 61 -38
17 -15 66 -59 110 -97 44 -39 93 -82 109 -97 l30 -27 33 30 c97 84 290 128
462 105 57 -8 139 -31 226 -64 39 -14 72 -27 75 -27 3 0 11 -4 18 -9 28 -17
24 6 -13 81 -67 137 -163 244 -292 326 -116 74 -211 114 -310 129 -5 1 -24 5
-43 9 -37 9 -218 12 -260 5 -14 -2 -49 -7 -78 -10 -28 -3 -69 -9 -90 -12 -32
-5 -298 -60 -327 -68 -60 -16 -76 -16 -95 -3 -18 12 -156 145 -406 389 -39 38
-79 69 -90 70 -20 1 -113 -11 -148 -18 -83 -19 -456 2 -456 25 0 4 43 42 96
86 52 44 110 94 128 110 17 17 49 43 70 59 21 15 34 32 29 36 -7 8 -128 41
-193 54 -220 43 -346 60 -535 71 -153 9 -221 17 -345 40 -183 35 -269 60 -429
124 -56 23 -105 41 -109 41 -4 -1 -29 -10 -57 -21z m-246 -324 c31 -35 37 -58
25 -89 -9 -23 -28 -20 -57 10 -31 31 -44 79 -27 99 18 21 24 19 59 -20z m673
-65 c0 -25 -7 -41 -27 -57 -14 -13 -30 -23 -36 -23 -17 0 -9 55 17 110 25 53
26 54 36 30 5 -14 10 -41 10 -60z m-563 38 c37 -39 59 -135 52 -223 -2 -17 -7
-15 -35 17 -33 38 -56 95 -56 140 0 29 11 88 16 88 2 0 12 -10 23 -22z m434
-72 c3 -43 1 -49 -21 -59 -18 -9 -25 -8 -33 4 -10 16 -4 67 13 105 17 36 36
12 41 -50z m-288 45 c24 -75 26 -191 3 -191 -29 0 -65 164 -44 198 11 18 34
14 41 -7z m151 -68 c11 -36 10 -45 -2 -58 -19 -18 -61 -20 -67 -2 -3 10 5 55
19 95 9 27 38 7 50 -35z m253 -205 c12 -33 -10 -98 -47 -141 -12 -13 -17 -15
-24 -5 -13 21 -9 77 8 111 32 63 49 72 63 35z m-557 -60 c7 -20 -3 -108 -12
-108 -27 0 -82 119 -71 154 2 9 79 -34 83 -46z m128 -3 c19 -23 12 -177 -10
-199 -23 -23 -75 171 -54 205 9 14 50 10 64 -6z m290 -27 c0 -39 -33 -114 -63
-146 l-22 -24 -5 59 c-8 93 -3 110 39 127 50 21 51 20 51 -16z m-153 -43 c6
-37 -8 -84 -33 -115 -14 -16 -29 -30 -34 -30 -8 0 -11 148 -4 162 2 3 18 6 36
5 23 -2 32 -7 35 -22z m-1232 -490 c21 -66 50 -158 65 -205 15 -47 23 -86 19
-88 -14 -6 -95 55 -141 107 -42 46 -58 84 -58 132 0 30 62 191 70 182 4 -4 25
-62 45 -128z m4490 11 c47 -8 135 -41 190 -69 l50 -26 -60 6 c-33 3 -78 8
-100 12 -55 10 -155 4 -225 -14 -22 -5 -60 -19 -88 -31 -18 -8 -38 -12 -45 -8
-24 15 -148 117 -145 120 6 6 64 14 143 20 44 4 81 7 82 8 3 3 164 -12 198
-18z"/>
<path d="M446 5513 c-142 -42 -210 -147 -182 -282 23 -114 68 -164 247 -274
93 -57 126 -89 152 -147 20 -44 21 -63 22 -773 1 -400 -2 -730 -7 -733 -4 -3
-74 -5 -156 -5 -247 0 -350 -38 -451 -167 -92 -117 -94 -283 -4 -400 l28 -37
7 72 c17 166 114 260 309 296 76 14 106 15 704 22 373 4 393 6 479 41 214 87
321 242 332 483 9 205 -69 374 -225 492 l-34 25 41 55 c54 71 86 144 108 244
12 53 15 197 6 258 -30 193 -192 373 -390 431 -42 12 -117 15 -385 16 -322 1
-486 5 -517 13 -117 30 -170 101 -135 182 13 29 13 29 14 6 1 -36 40 -110 63
-122 32 -17 102 -14 137 7 43 25 81 102 76 155 -7 70 -85 146 -157 153 -18 2
-55 -3 -82 -11z m864 -508 c95 -50 156 -130 177 -235 10 -49 8 -176 -3 -240
-18 -106 -85 -236 -167 -325 l-64 -70 66 -75 c36 -41 85 -96 109 -123 24 -26
57 -78 75 -114 26 -57 31 -81 34 -157 8 -268 -137 -449 -359 -448 -94 1 -85
-88 -86 927 l0 894 41 3 c52 4 131 -13 177 -37z"/>
<path d="M2825 5273 c-32 -8 -75 -54 -85 -94 -26 -97 37 -162 132 -136 25 7
26 5 22 -20 -9 -49 -52 -100 -105 -122 -54 -24 -137 -29 -474 -31 l-180 -1 65
-32 c78 -39 110 -81 110 -143 0 -24 -28 -134 -66 -256 -36 -117 -76 -247 -88
-288 -49 -159 -168 -549 -197 -640 -16 -53 -31 -105 -33 -117 -8 -40 -57 -128
-94 -169 -56 -63 -102 -92 -223 -144 l-112 -48 346 1 c249 0 344 3 340 11 -4
6 -31 33 -60 60 -63 58 -66 75 -27 198 15 46 27 88 28 93 9 43 50 152 62 166
13 14 41 17 213 18 178 2 199 0 213 -16 23 -27 101 -298 93 -324 -5 -14 -32
-33 -79 -55 l-71 -33 298 -1 c164 0 297 3 295 8 -77 148 -86 175 -283 797 -35
110 -109 343 -164 518 -56 175 -101 322 -101 326 0 5 35 11 79 15 229 19 364
113 365 256 1 75 -8 107 -42 149 -40 49 -109 70 -177 54z m-320 -1208 c46
-187 83 -340 82 -341 -14 -11 -267 -20 -297 -10 -8 2 -27 7 -42 10 -19 4 -28
13 -28 26 0 19 27 123 115 445 24 88 49 180 56 205 10 39 13 42 20 25 5 -11
47 -173 94 -360z"/>
<path d="M6290 5150 c-54 -28 -75 -72 -74 -155 1 -114 37 -169 198 -299 59
-48 90 -110 83 -169 -2 -23 -52 -233 -110 -467 -58 -234 -108 -436 -110 -450
-3 -14 -10 -45 -17 -70 -7 -25 -14 -52 -15 -60 -50 -238 -106 -319 -289 -414
l-68 -36 238 6 c317 7 373 10 379 16 3 3 -10 17 -29 31 -42 33 -78 89 -79 125
-1 76 45 271 68 289 13 9 65 12 187 11 140 -1 172 -4 188 -17 13 -10 45 -97
90 -239 38 -122 70 -224 70 -226 0 -2 -24 -18 -53 -34 -146 -82 -178 -231 -74
-340 55 -58 102 -77 192 -77 129 0 185 46 185 152 0 64 -12 96 -46 128 -34 31
-93 33 -158 5 -25 -10 -46 -16 -46 -11 0 16 63 101 93 127 37 31 118 70 162
78 17 3 42 7 56 10 98 21 214 24 749 20 566 -5 597 -4 612 13 21 23 201 363
196 369 -3 2 -47 -28 -99 -67 -123 -92 -232 -146 -332 -163 -76 -13 -567 -23
-567 -12 0 3 46 102 103 218 57 117 136 282 177 365 69 145 74 152 88 132 26
-37 26 -98 -1 -181 -14 -43 -23 -78 -20 -78 3 0 20 9 37 19 42 26 140 58 201
66 28 3 127 8 220 11 94 3 186 6 205 9 19 2 41 4 48 4 9 1 12 37 12 146 l0
145 -52 1 c-29 0 -89 2 -133 3 -44 2 -165 7 -270 11 -104 4 -192 8 -194 10 -6
6 246 469 305 560 53 81 115 125 238 168 l101 36 -170 -7 c-182 -7 -683 -8
-1062 -1 -196 3 -235 1 -247 -11 -8 -8 -31 -46 -51 -85 -133 -253 -210 -397
-243 -453 -13 -24 -23 -45 -20 -47 2 -2 26 17 53 43 202 189 361 332 399 360
58 41 120 48 391 47 214 0 250 -3 248 -15 -3 -14 -54 -113 -126 -244 -16 -28
-53 -98 -82 -156 -69 -136 -85 -150 -186 -165 -99 -14 -116 -18 -174 -36 -119
-36 -189 -110 -249 -259 -50 -124 -47 -135 17 -74 101 99 200 147 330 163 72
8 84 3 67 -26 -5 -10 -68 -137 -138 -283 -71 -146 -143 -282 -160 -301 -37
-43 -141 -100 -182 -101 -17 -1 -39 7 -50 17 -19 18 -113 294 -218 645 -103
344 -195 710 -186 744 3 13 34 48 67 78 93 79 91 78 70 79 -10 1 -137 2 -283
4 -221 2 -273 5 -315 20 -60 20 -92 48 -112 94 -17 39 -8 51 39 51 68 0 122
65 111 134 -6 39 -20 56 -60 73 -44 18 -81 16 -123 -7z m400 -976 c17 -71 49
-210 71 -309 23 -99 43 -183 45 -186 2 -3 -2 -13 -9 -22 -8 -10 -36 -17 -82
-21 -38 -3 -107 -8 -152 -12 l-81 -6 18 74 c11 40 21 84 24 98 8 42 13 63 26
110 7 25 14 52 15 60 8 34 76 316 81 333 3 10 8 17 10 14 2 -2 18 -62 34 -133z"/>
<path d="M4553 5099 c-95 -12 -167 -58 -204 -131 -23 -46 -27 -129 -8 -182
l13 -35 31 52 c56 93 94 103 442 112 l153 4 0 -884 0 -885 -67 5 c-175 13
-309 105 -277 189 5 14 9 14 33 -3 41 -29 70 -32 110 -11 103 53 97 200 -12
256 -38 20 -106 26 -150 12 -46 -14 -110 -73 -138 -128 -30 -57 -33 -158 -5
-209 29 -54 130 -145 203 -184 71 -37 187 -70 287 -82 32 -4 70 -9 85 -12 78
-16 402 -2 536 23 250 46 350 88 458 193 46 43 117 141 117 160 0 4 7 22 16
40 39 78 55 243 34 350 -13 72 -52 148 -98 195 -34 35 -156 128 -185 140 -8 3
-5 10 8 21 58 45 98 94 124 149 54 114 74 270 51 398 -29 161 -153 320 -312
397 -46 23 -96 44 -113 48 -41 10 -1056 12 -1132 2z m992 -148 c56 -15 119
-56 164 -107 55 -62 82 -149 86 -274 5 -165 -47 -297 -167 -419 -32 -32 -58
-61 -58 -64 0 -2 30 -22 66 -43 200 -117 282 -328 213 -548 -50 -156 -187
-258 -350 -260 -48 -1 -83 4 -90 11 -9 9 -12 209 -11 830 0 450 1 834 1 854
l1 36 54 -3 c30 -1 71 -7 91 -13z"/>
<path d="M9681 5048 c20 -13 56 -36 81 -52 86 -54 83 -35 84 -506 1 -228 2
-418 3 -422 1 -3 13 -5 29 -3 15 2 48 5 75 6 35 2 47 7 48 18 1 21 1 954 0
962 -1 3 -7 6 -13 6 -7 0 -87 3 -178 7 l-165 7 36 -23z"/>
<path d="M10387 4914 c-3 -2 -227 -14 -267 -14 l-36 0 1 -757 0 -758 -22 -41
c-23 -43 -69 -88 -145 -143 -27 -19 -48 -38 -48 -42 0 -5 17 -6 38 -4 20 2 89
7 152 10 177 8 320 16 370 20 187 16 763 25 775 13 7 -6 -134 -197 -145 -198
-3 0 -16 17 -29 39 -40 65 -121 74 -179 21 -60 -54 -63 -148 -8 -223 30 -41
64 -55 121 -52 109 6 157 46 289 246 75 111 256 361 276 379 3 3 40 46 82 95
42 50 101 117 132 149 31 33 55 60 53 62 -1 1 -33 -16 -72 -38 -38 -22 -113
-63 -165 -91 -52 -27 -99 -53 -105 -58 -5 -4 -59 -32 -120 -62 -142 -71 -215
-87 -365 -82 -120 5 -148 6 -503 30 -33 2 -61 6 -64 9 -3 3 -6 284 -6 624 l-1
619 25 49 c15 29 47 66 79 92 30 24 73 59 95 78 l40 34 -123 -3 c-68 -1 -124
-3 -125 -3z"/>
<path d="M9438 4815 c-2 -3 -69 -7 -148 -10 -276 -11 -311 -13 -317 -19 -3 -3
-6 -304 -5 -668 0 -569 2 -668 15 -699 19 -45 128 -156 188 -191 99 -58 207
-82 360 -80 146 1 249 42 339 132 97 97 131 191 135 370 2 69 1 128 -1 131 -4
7 -137 -10 -146 -19 -4 -4 -10 -44 -13 -90 -9 -136 -14 -163 -43 -206 -29 -43
-86 -81 -137 -90 -51 -10 -169 -8 -197 3 -39 15 -71 55 -87 109 -17 61 -25
1156 -8 1205 5 17 29 50 53 73 28 28 38 44 29 48 -7 2 -15 3 -17 1z"/>
<path d="M3010 4755 c-162 -28 -242 -101 -242 -217 1 -69 18 -112 58 -148 55
-48 145 -39 198 19 15 16 18 31 14 77 -3 31 -10 59 -17 64 -7 4 -31 5 -53 3
l-40 -5 15 28 c33 63 139 117 229 118 31 0 60 -3 63 -6 4 -3 7 -329 7 -725 l0
-718 -22 -48 c-24 -50 -75 -97 -150 -136 -25 -13 -48 -27 -52 -30 -5 -5 524
-6 660 -2 21 1 20 4 -18 44 -39 39 -67 88 -86 147 -8 28 -6 539 3 553 10 16
135 0 187 -23 28 -13 71 -44 96 -70 50 -51 68 -85 155 -285 98 -225 181 -359
295 -475 121 -123 285 -219 417 -244 11 -3 36 -8 54 -13 44 -12 240 -14 304
-3 28 5 68 12 89 15 145 24 426 165 566 284 l35 30 -40 -5 c-22 -2 -51 -7 -65
-10 -47 -11 -118 -22 -190 -29 -19 -2 -62 -7 -95 -11 -65 -7 -305 -7 -370 0
-297 32 -534 171 -679 400 -44 68 -111 188 -175 311 -71 138 -110 178 -196
204 -22 7 -47 15 -55 18 -10 3 -4 9 18 18 49 21 143 122 173 185 39 82 52 151
46 244 -9 139 -64 244 -173 330 -72 56 -150 94 -228 111 -78 17 -640 17 -736
0z m674 -112 c75 -26 133 -80 171 -160 72 -153 64 -339 -21 -474 -42 -67 -122
-109 -216 -115 -49 -2 -58 0 -59 14 -1 30 -1 716 0 740 1 21 4 22 44 16 23 -4
60 -13 81 -21z"/>
<path d="M10915 4271 c-6 -5 -46 -27 -90 -49 -85 -43 -233 -86 -327 -98 -32
-3 -62 -12 -68 -19 -10 -12 -14 -59 -11 -123 1 -20 5 -22 34 -17 59 11 229 85
297 130 66 44 147 122 169 163 12 23 11 28 -4 13z"/>
<path d="M9777 4033 c-2 -1 -270 -11 -339 -12 l-38 -1 0 -121 c0 -110 2 -120
18 -115 9 3 71 8 137 12 66 3 138 8 160 10 22 2 92 6 155 10 63 4 122 8 130
10 8 1 24 3 35 3 19 1 20 8 20 107 l1 106 -139 -4 c-76 -2 -139 -4 -140 -5z"/>
</g>
</svg>
